<svg fill="#FFFFFF" height="200px" width="200px" version="1.1" id="Layer_1" xmlns="http://www.w3.org/2000/svg" xmlns:xlink="http://www.w3.org/1999/xlink" viewBox="0 0 512.01 512.01" xml:space="preserve" stroke="#FFFFFF"><g id="SVGRepo_bgCarrier" stroke-width="0"></g><g id="SVGRepo_tracerCarrier" stroke-linecap="round" stroke-linejoin="round"></g><g id="SVGRepo_iconCarrier"> <g> <g> <g> <path d="M237.903,337.736l-62.464-9.536l-28.117-59.925c-3.52-7.488-11.051-12.267-19.307-12.267 c-8.277,0-15.808,4.779-19.328,12.267L80.57,328.2l-62.464,9.536c-7.893,1.216-14.443,6.741-17.003,14.315 c-2.539,7.595-0.619,15.957,4.971,21.675l45.803,46.955l-10.859,66.56c-1.301,8.064,2.112,16.171,8.789,20.864 c6.677,4.715,15.488,5.184,22.592,1.237l55.616-30.72l55.595,30.72c3.2,1.771,6.763,2.667,10.304,2.667 c4.331,0,8.64-1.323,12.309-3.904c6.656-4.693,10.069-12.8,8.768-20.864l-10.859-66.56l45.803-46.955 c5.589-5.717,7.509-14.08,4.971-21.675C252.367,344.477,245.796,338.952,237.903,337.736z"></path> <path d="M294.569,187.276l-30.165,30.165c-8.341,8.341-8.341,21.845,0,30.165c4.16,4.16,9.621,6.251,15.083,6.251 c5.461,0,10.923-2.091,15.083-6.251l30.165-30.165c8.341-8.341,8.341-21.824,0-30.165 C316.393,178.934,302.91,178.934,294.569,187.276z"></path> <path d="M198.236,313.744c4.16,4.181,9.643,6.251,15.104,6.251c5.461,0,10.923-2.069,15.061-6.229l5.824-5.803 c8.341-8.32,8.341-21.824,0.021-30.165c-8.32-8.363-21.867-8.363-30.165-0.021l-5.803,5.803 C189.916,291.899,189.916,305.403,198.236,313.744z"></path> <path d="M385.09,96.756l-30.187,30.165c-8.341,8.341-8.341,21.845,0,30.187c4.16,4.16,9.621,6.251,15.083,6.251 c5.461,0,10.923-2.091,15.083-6.251l30.187-30.165c8.341-8.341,8.341-21.845,0-30.187 C406.914,88.436,393.432,88.436,385.09,96.756z"></path> <path d="M460.506,72.84c5.461,0,10.923-2.091,15.083-6.251l30.165-30.165c8.341-8.341,8.341-21.824,0-30.165 c-8.341-8.341-21.824-8.341-30.165,0l-30.165,30.165c-8.341,8.341-8.341,21.824,0,30.165 C449.583,70.749,455.044,72.84,460.506,72.84z"></path> <path d="M477.568,153.827l-33.685,26.197c-9.301,7.232-10.987,20.629-3.733,29.931c4.203,5.419,10.496,8.256,16.853,8.256 c4.565,0,9.195-1.472,13.077-4.501l33.707-26.197c9.28-7.232,10.965-20.629,3.712-29.931 C500.267,148.302,486.891,146.617,477.568,153.827z"></path> <path d="M376.527,232.421l-33.664,26.197c-9.301,7.232-10.965,20.629-3.733,29.931c4.203,5.419,10.496,8.235,16.853,8.235 c4.565,0,9.195-1.472,13.077-4.501l33.685-26.197c9.28-7.232,10.944-20.629,3.712-29.931S385.85,225.168,376.527,232.421z"></path> <path d="M221.382,171.272c3.947,3.136,8.64,4.672,13.312,4.672c6.272,0,12.459-2.731,16.683-8l26.667-33.323 c7.36-9.216,5.867-22.635-3.328-29.995c-9.216-7.36-22.613-5.824-29.995,3.328l-26.667,33.323 C210.694,150.493,212.188,163.912,221.382,171.272z"></path> <path d="M157.34,251.333c3.947,3.136,8.64,4.672,13.312,4.672c6.272,0,12.459-2.731,16.661-8l10.752-13.419 c7.381-9.216,5.888-22.635-3.307-29.995c-9.237-7.381-22.635-5.845-29.973,3.328l-10.752,13.419 C146.652,230.533,148.145,243.973,157.34,251.333z"></path> <path d="M354.673,4.682c-9.216-7.36-22.635-5.845-29.995,3.328l-26.645,33.323c-7.36,9.195-5.867,22.613,3.328,29.973 c3.947,3.157,8.64,4.672,13.312,4.672c6.272,0,12.459-2.731,16.683-8l26.645-33.323C365.361,25.46,363.868,12.042,354.673,4.682z "></path> </g> </g> </g> </g></svg>